<?xml version="1.0" encoding="utf-8"?>
<!-- Generator: Adobe Illustrator 24.2.3, SVG Export Plug-In . SVG Version: 6.00 Build 0)  -->
<svg version="1.1"
	xmlns="http://www.w3.org/2000/svg"
	xmlns:xlink="http://www.w3.org/1999/xlink" x="0px" y="0px" viewBox="0 0 96.3 95.3" style="enable-background:new 0 0 96.3 95.3;" xml:space="preserve">
	<style type="text/css">
	.st0{display:none;}
	.st1{display:inline;}
	.st2{fill:#7F3939;stroke:#FFFFFF;stroke-width:6;stroke-miterlimit:10;}
	</style>
	<g id="Layer_1" fill="currentColor">
		<g id="Layer_1_1_" class="st0">
			<g id="Layer_2_1_" class="st1">
				<g id="Layer_1-2">
					<path d="M79.9,95.3h0.8c0.8,0,1.6-0.3,2.2-0.9l12.5-12.5c0.6-0.6,0.9-1.4,0.9-2.2V79H79.9V95.3z"/>
					<path d="M93.2,46.2H49.1V16.9c0-1.6-0.6-3.2-1.8-4.4L36.6,1.8C35.4,0.6,33.9,0,32.2,0H6.1C2.7,0,0,2.8,0,6.2v53.2
					c0,3.4,2.7,6.1,6.1,6.1l0,0h24.7v26.7c0,1.7,1.4,3.1,3,3.1l0,0h42V77.9c0-1.7,1.4-3.1,3.1-3.1h17.4V49.3
					C96.4,47.6,95,46.2,93.2,46.2C93.3,46.2,93.3,46.2,93.2,46.2z M32.8,6.7l9.7,9.7h-9.7V6.7z M6.1,59.4V6.2h20.5v13.3
					c0,1.7,1.4,3.1,3,3.1l0,0H43v23.7h-9.1c-1.7,0-3.1,1.4-3.1,3l0,0v10.1H6.1z"/>
					<path d="M62.7,25.4C70.8,26,77.1,32.8,77.2,41l0,0h6l0,0c0-11.5-9-21-20.5-21.6v-6.2l-9.1,9.1l9.1,9.1L62.7,25.4z"/>
				</g>
			</g>
		</g>
		<g id="Layer_2_2_" class="st0">
			<g class="st1">
				<path d="M75.3,24.9h20.9v50.5c0,2-1.6,3.7-3.7,3.7H40.8c-2,0-3.7-1.6-3.7-3.7V4c0-2,1.6-3.7,3.7-3.7h30.8v20.9
				C71.6,23.3,73.3,24.9,75.3,24.9z M96.2,20H76.5V0.3h0.9c1,0,1.9,0.4,2.6,1.1l15.1,15.1c0.7,0.7,1.1,1.6,1.1,2.6V20z"/>
			</g>
			<g class="st1">
				<path class="st2" d="M73.1,62.4c0,15.8-15.7,28.5-35.1,28.5c-5.3,0-10.2-1-14.7-2.7c-3.4,2.7-10.2,7-19.3,7c-0.4,0-0.8-0.2-1-0.7
				c-0.2-0.4-0.1-0.9,0.2-1.2c0.1-0.1,5.8-6.2,7.5-13.1c-4.9-4.9-7.8-11.1-7.8-17.9c0-15.8,15.7-28.5,35.1-28.5S73.1,46.7,73.1,62.4
				z"/>
			</g>
			<g class="st1">
				<path d="M69.9,62.5c0,14.2-14.2,25.7-31.7,25.7c-4.8,0-9.2-0.9-13.3-2.4c-3,2.4-9.2,6.4-17.4,6.4c-0.4,0-0.7-0.2-0.9-0.6
				c-0.2-0.4-0.1-0.8,0.2-1.1c0.1-0.1,5.2-5.6,6.8-11.9c-4.4-4.4-7.1-10-7.1-16.2c0-14.2,14.2-25.7,31.7-25.7S69.9,48.3,69.9,62.5z
				 M26.4,62.5c0-2.2-1.8-4-4-4s-4,1.8-4,4c0,2.2,1.8,4,4,4S26.4,64.7,26.4,62.5z M42.2,62.5c0-2.2-1.8-4-4-4s-4,1.8-4,4
				c0,2.2,1.8,4,4,4S42.2,64.7,42.2,62.5z M58.1,62.5c0-2.2-1.8-4-4-4s-4,1.8-4,4c0,2.2,1.8,4,4,4S58.1,64.7,58.1,62.5z"/>
			</g>
		</g>
		<g id="Layer_2_copy">
			<g>
				<path d="M68.8,22V0.3H36.9c-2.1,0-3.8,1.7-3.8,3.8V32c0.3,0,0.6,0,0.9,0c21.7,0,39.4,14.6,39.4,32.6c0,6.3-2.2,12.2-6,17.3h23
				c2.1,0,3.8-1.7,3.8-3.8V25.8H72.6C70.5,25.8,68.8,24.1,68.8,22z"/>
				<path d="M93.1,17L77.5,1.4c-0.7-0.7-1.7-1.1-2.7-1.1h-1v20.4h20.4v-1C94.2,18.7,93.8,17.7,93.1,17z"/>
			</g>
			<g>
				<path d="M67,64.6c0,14.7-14.7,26.6-32.8,26.6c-4.9,0-9.6-0.9-13.7-2.5c-3.1,2.5-9.5,6.6-18,6.6c-0.4,0-0.8-0.2-0.9-0.6
				c-0.2-0.4-0.1-0.8,0.2-1.1c0.1-0.1,5.4-5.8,7-12.3C4.2,76.8,1.5,71,1.5,64.6C1.5,49.9,16.2,38,34.3,38S67,49.9,67,64.6z M22,64.6
				c0-2.3-1.8-4.1-4.1-4.1s-4.1,1.8-4.1,4.1c0,2.3,1.8,4.1,4.1,4.1S22,66.9,22,64.6z M38.4,64.6c0-2.3-1.8-4.1-4.1-4.1
				s-4.1,1.8-4.1,4.1c0,2.3,1.8,4.1,4.1,4.1S38.4,66.9,38.4,64.6z M54.8,64.6c0-2.3-1.8-4.1-4.1-4.1s-4.1,1.8-4.1,4.1
				c0,2.3,1.8,4.1,4.1,4.1C52.9,68.7,54.8,66.9,54.8,64.6z"/>
			</g>
		</g>
	</g>
	<g id="Layer_2_copy_1_" class="st0">
		<g class="st1">
			<path d="M64.5,21.5l4.3,4.3c0.7,0.7,0.7,1.9,0,2.6L23.3,73.8c-0.7,0.7-1.9,0.7-2.6,0L0.5,53.6c-0.7-0.7-0.7-1.9,0-2.6l4.3-4.3
			c0.7-0.7,1.9-0.7,2.6,0L22,61.4l39.9-39.9C62.6,20.8,63.7,20.8,64.5,21.5z"/>
		</g>
		<path class="st1" d="M95.8,25.8l-4.3-4.3c-0.7-0.7-1.9-0.7-2.6,0L49,61.4l-3.7-3.7l-6.9,6.9l9.3,9.3c0.7,0.7,1.9,0.7,2.6,0
		l45.4-45.4C96.5,27.6,96.5,26.5,95.8,25.8z"/>
	</g>
	<g id="Layer_2_copy_2" class="st0">
		<g class="st1">
			<path d="M70.1,2.9l4.6,4.6c0.8,0.8,0.8,2,0,2.8L26,58.9c-0.8,0.8-2,0.8-2.8,0L1.5,37.2c-0.8-0.8-0.8-2,0-2.8l4.6-4.6
			c0.8-0.8,2-0.8,2.8,0l15.7,15.7L67.3,2.9C68.1,2.1,69.3,2.1,70.1,2.9z"/>
		</g>
		<path class="st1" d="M95.7,7.5l-4.6-4.6c-0.8-0.8-2-0.8-2.8,0L45.6,45.6l-3.2-3.2l-7.4,7.4l9.1,9.1c0.8,0.8,2,0.8,2.8,0l48.7-48.7
		C96.5,9.4,96.5,8.2,95.7,7.5z"/>
	</g>
	<g id="Layer_2" class="st0">
		<g class="st1">
			<path d="M91.1,2.9l4.6,4.6c0.8,0.8,0.8,2,0,2.8L47,58.9c-0.8,0.8-2,0.8-2.8,0L22.6,37.2c-0.8-0.8-0.8-2,0-2.8l4.6-4.6
			c0.8-0.8,2-0.8,2.8,0l15.7,15.7L88.4,2.9C89.1,2.1,90.4,2.1,91.1,2.9z"/>
		</g>
		<g class="st1">
			<path d="M47,37.9l27.7-27.7c0.8-0.8,0.8-2,0-2.8l-4.6-4.6c-0.8-0.8-2-0.8-2.8,0L39.7,30.5L47,37.9z"/>
			<path d="M32.3,37.9l-7.7,7.7L8.9,29.9c-0.8-0.8-2-0.8-2.8,0l-4.6,4.6c-0.8,0.8-0.8,2,0,2.8l21.7,21.7c0.8,0.8,2,0.8,2.8,0
			l13.7-13.7L32.3,37.9z"/>
		</g>
	</g>
</svg>
