<svg id="f7111fac-03cb-48ed-bcb5-b09b85fcaf88" data-name="Global-comment"
	xmlns="http://www.w3.org/2000/svg" viewBox="0 0 95.99783 95" fill="currentColor">
	<path d="M37.00482,30.312c-20.3996,0-36.99565,13.567-36.99565,30.25733A26.70443,26.70443,0,0,0,7.27348,78.53375,34.4974,34.4974,0,0,1,1.19288,87.941,4.36124,4.36124,0,0,0,4.37382,95.3h.01057a34.955,34.955,0,0,0,19.7289-6.41187,44.44264,44.44264,0,0,0,12.89153,1.91068C57.404,90.79881,74,77.23176,74,60.55494,74,43.87908,57.404,30.312,37.00482,30.312ZM15.671,81.28264l1.70971-4.52619-3.33768-3.53384A18.28539,18.28539,0,0,1,8.73077,60.77774c0-11.867,12.68383-21.52178,28.27405-21.52178S65.2784,48.91078,65.2784,60.77774,52.59505,82.3,37.00482,82.3h-.00913A35.53959,35.53959,0,0,1,26.263,80.64065l-3.64973-1.15618-3.14391,2.22416a29.21789,29.21789,0,0,1-5.33634,3.003A36.34648,36.34648,0,0,0,15.671,81.28264Z" transform="translate(-0.00217 -0.3)"/>
	<path d="M93.5907,17.37361,78.90783,2.69069A8.16226,8.16226,0,0,0,73.13623.3H38a9.02176,9.02176,0,0,0-9,9V21.84327a44.95686,44.95686,0,0,1,7.28088-.59051c.5766,0,1.149.01385,1.71912.03528V9.3H66V27.20021A4.09979,4.09979,0,0,0,70.09979,31.3H88v49H76.0179a30.99536,30.99536,0,0,1-8.92566,9h20.7083A8.19946,8.19946,0,0,0,96,81.10054V23.1902A8.22593,8.22593,0,0,0,93.5907,17.37361ZM74,23.3V10.2997L87.00031,23.3Z" transform="translate(-0.00217 -0.3)"/>
</svg>